<svg width="32" height="32" viewBox="0 0 32 32" fill="none" xmlns="http://www.w3.org/2000/svg">
  <path 
    fill-rule="evenodd" 
    clip-rule="evenodd" 
    d="M16 28C22.6274 28 28 22.6274 28 16C28 9.37258 22.6274 4 16 4C9.37258 4 4 9.37258 4 16C4 22.6274 9.37258 28 16 28ZM16 24.5C20.6944 24.5 24.5 20.6944 24.5 16C24.5 11.3056 20.6944 7.5 16 7.5C11.3056 7.5 7.5 11.3056 7.5 16C7.5 20.6944 11.3056 24.5 16 24.5Z" 
    fill="black"
  />
  <path d="M4.75 16L12 12" stroke="black" stroke-width="1.5"/>
  <path d="M12 20L4.75 16" stroke="black" stroke-width="1.5"/>
  <path d="M16 4.75L20 12" stroke="black" stroke-width="1.5"/>
  <path d="M12 12L16 4.75" stroke="black" stroke-width="1.5"/>
  <path d="M27.25 16L20 20" stroke="black" stroke-width="1.5"/>
  <path d="M20 12L27.25 16" stroke="black" stroke-width="1.5"/>
  <path d="M16 27.25L12 20" stroke="black" stroke-width="1.5"/>
  <path d="M20 20L16 27.25" stroke="black" stroke-width="1.5"/>
</svg>
